<?xml version="1.0" standalone="no"?>
<!DOCTYPE svg PUBLIC "-//W3C//DTD SVG 20010904//EN"
 "http://www.w3.org/TR/2001/REC-SVG-20010904/DTD/svg10.dtd">
<svg version="1.0" xmlns="http://www.w3.org/2000/svg"
 width="288.000000pt" height="288.000000pt" viewBox="0 0 288.000000 288.000000"
 preserveAspectRatio="xMidYMid meet">
<metadata>
Created by potrace 1.14, written by Peter Selinger 2001-2017
</metadata>
<g transform="translate(0.000000,288.000000) scale(0.100000,-0.100000)"
fill="#000000" stroke="none">
<path d="M0 1440 l0 -1440 1440 0 1440 0 0 1440 0 1440 -1440 0 -1440 0 0
-1440z m1593 667 c76 -45 108 -120 87 -207 -14 -59 -62 -117 -141 -171 l-59
-40 0 -54 0 -55 -45 0 -45 0 0 78 0 77 66 40 c108 65 148 142 113 219 -27 59
-148 72 -251 27 l-48 -20 0 54 0 54 63 15 c94 23 203 16 260 -17z m-398 -96
c59 -26 101 -80 116 -145 10 -46 10 -68 -3 -133 l-16 -78 39 -40 39 -41 -33
-32 -33 -32 -53 54 -53 53 18 80 c10 49 14 94 10 117 -9 46 -58 103 -96 111
-62 14 -159 -71 -191 -167 -7 -21 -15 -38 -19 -38 -3 0 -21 15 -39 34 l-33 34
21 39 c32 64 120 154 176 180 60 27 97 29 150 4z m634 -1 c100 -50 201 -179
201 -255 0 -44 -32 -106 -73 -142 -54 -48 -126 -60 -227 -40 l-81 16 -37 -40
-37 -40 -32 33 -33 34 54 53 53 53 80 -18 c96 -20 141 -14 187 27 45 39 51 69
27 124 -21 48 -90 105 -153 126 -21 7 -38 15 -38 18 0 6 62 71 67 71 2 0 21
-9 42 -20z m-844 -331 c55 -14 114 -64 166 -140 l40 -59 54 0 55 0 0 -45 0
-45 -77 0 -78 0 -40 66 c-65 108 -142 148 -219 113 -59 -27 -72 -148 -27 -251
l20 -48 -54 0 -54 0 -17 76 c-37 170 11 300 125 334 37 12 57 11 106 -1z
m1141 -145 c31 -143 1 -264 -78 -312 -107 -65 -223 -21 -319 119 l-40 59 -54
0 -55 0 0 45 0 45 78 0 77 0 40 -66 c65 -108 142 -148 219 -113 59 27 72 148
27 252 l-20 47 54 0 54 0 17 -76z m-656 -40 c45 -16 40 -89 -7 -111 -48 -23
-103 32 -80 81 12 24 45 46 62 40 6 -2 17 -6 25 -10z m-153 -242 l-54 -54 -80
18 c-104 22 -145 14 -196 -37 -35 -35 -39 -43 -34 -75 11 -66 79 -132 170
-165 20 -7 37 -16 37 -19 0 -3 -15 -21 -34 -39 l-34 -33 -52 28 c-28 15 -77
55 -109 89 -103 111 -108 211 -14 297 59 52 127 66 230 46 l78 -16 40 39 39
39 33 -32 33 -32 -53 -54z m347 -69 c-20 -96 -14 -141 27 -187 39 -45 69 -51
124 -27 48 21 92 74 122 146 10 25 20 45 24 45 3 0 20 -16 39 -35 l33 -34 -34
-56 c-45 -74 -123 -147 -181 -169 -69 -27 -124 -16 -181 35 -73 63 -91 143
-62 264 l14 60 -40 40 -39 41 32 32 33 32 53 -53 54 -54 -18 -80z m-174 40 l0
-78 -66 -40 c-108 -65 -148 -142 -113 -219 27 -59 148 -72 252 -27 l47 20 0
-54 0 -54 -76 -17 c-143 -31 -264 -1 -312 78 -65 107 -21 223 119 319 l59 40
0 54 0 55 45 0 45 0 0 -77z"/>
</g>
</svg>
